<mxfile host="app.diagrams.net" modified="2023-09-15T13:18:55.349Z" agent="Mozilla/5.0 (Macintosh; Intel Mac OS X 10_15_7) AppleWebKit/537.36 (KHTML, like Gecko) Chrome/116.0.0.0 Safari/537.36" etag="gHRdhzt6a8cj5h9Ibj_f" version="21.6.2" type="github">
  <diagram id="C5RBs43oDa-KdzZeNtuy" name="Page-1">
    <mxGraphModel dx="1811" dy="623" grid="1" gridSize="10" guides="1" tooltips="1" connect="1" arrows="1" fold="1" page="1" pageScale="1" pageWidth="827" pageHeight="1169" math="0" shadow="0">
      <root>
        <mxCell id="WIyWlLk6GJQsqaUBKTNV-0" />
        <mxCell id="WIyWlLk6GJQsqaUBKTNV-1" parent="WIyWlLk6GJQsqaUBKTNV-0" />
        <mxCell id="3T_zQqeu_H3zPudYL2ma-0" value="repeater集群" style="rounded=1;whiteSpace=wrap;html=1;" vertex="1" parent="WIyWlLk6GJQsqaUBKTNV-1">
          <mxGeometry x="-30" y="300" width="90" height="40" as="geometry" />
        </mxCell>
        <mxCell id="3T_zQqeu_H3zPudYL2ma-3" style="edgeStyle=orthogonalEdgeStyle;rounded=0;orthogonalLoop=1;jettySize=auto;html=1;exitX=1;exitY=0.5;exitDx=0;exitDy=0;" edge="1" parent="WIyWlLk6GJQsqaUBKTNV-1" source="3T_zQqeu_H3zPudYL2ma-15" target="3T_zQqeu_H3zPudYL2ma-0">
          <mxGeometry relative="1" as="geometry">
            <Array as="points">
              <mxPoint x="15" y="215" />
            </Array>
          </mxGeometry>
        </mxCell>
        <mxCell id="3T_zQqeu_H3zPudYL2ma-7" value="2.远程用户电脑" style="edgeLabel;html=1;align=center;verticalAlign=middle;resizable=0;points=[];" vertex="1" connectable="0" parent="3T_zQqeu_H3zPudYL2ma-3">
          <mxGeometry x="-0.3851" y="-1" relative="1" as="geometry">
            <mxPoint as="offset" />
          </mxGeometry>
        </mxCell>
        <mxCell id="3T_zQqeu_H3zPudYL2ma-4" style="edgeStyle=orthogonalEdgeStyle;rounded=0;orthogonalLoop=1;jettySize=auto;html=1;entryX=0.5;entryY=1;entryDx=0;entryDy=0;exitX=1;exitY=0.5;exitDx=0;exitDy=0;" edge="1" parent="WIyWlLk6GJQsqaUBKTNV-1" source="3T_zQqeu_H3zPudYL2ma-13" target="3T_zQqeu_H3zPudYL2ma-0">
          <mxGeometry relative="1" as="geometry" />
        </mxCell>
        <mxCell id="3T_zQqeu_H3zPudYL2ma-6" value="1.请求远程协助" style="edgeLabel;html=1;align=center;verticalAlign=middle;resizable=0;points=[];" vertex="1" connectable="0" parent="3T_zQqeu_H3zPudYL2ma-4">
          <mxGeometry x="-0.5084" y="-4" relative="1" as="geometry">
            <mxPoint x="13" y="1" as="offset" />
          </mxGeometry>
        </mxCell>
        <mxCell id="3T_zQqeu_H3zPudYL2ma-5" value="文件存储NFS" style="shape=cylinder3;whiteSpace=wrap;html=1;boundedLbl=1;backgroundOutline=1;size=15;" vertex="1" parent="WIyWlLk6GJQsqaUBKTNV-1">
          <mxGeometry x="130" y="150" width="60" height="80" as="geometry" />
        </mxCell>
        <mxCell id="3T_zQqeu_H3zPudYL2ma-13" value="用户端" style="swimlane;whiteSpace=wrap;html=1;" vertex="1" parent="WIyWlLk6GJQsqaUBKTNV-1">
          <mxGeometry x="-280" y="360" width="160" height="150" as="geometry" />
        </mxCell>
        <mxCell id="3T_zQqeu_H3zPudYL2ma-2" value="用户" style="shape=umlActor;verticalLabelPosition=bottom;verticalAlign=top;html=1;outlineConnect=0;fillColor=#d5e8d4;strokeColor=#82b366;" vertex="1" parent="3T_zQqeu_H3zPudYL2ma-13">
          <mxGeometry x="30" y="50" width="30" height="60" as="geometry" />
        </mxCell>
        <mxCell id="3T_zQqeu_H3zPudYL2ma-9" value="x11vnc" style="shape=cube;whiteSpace=wrap;html=1;boundedLbl=1;backgroundOutline=1;darkOpacity=0.05;darkOpacity2=0.1;" vertex="1" parent="3T_zQqeu_H3zPudYL2ma-13">
          <mxGeometry x="80" y="70" width="70" height="30" as="geometry" />
        </mxCell>
        <mxCell id="3T_zQqeu_H3zPudYL2ma-15" value="工程师端" style="swimlane;whiteSpace=wrap;html=1;" vertex="1" parent="WIyWlLk6GJQsqaUBKTNV-1">
          <mxGeometry x="-280" y="140" width="160" height="150" as="geometry" />
        </mxCell>
        <mxCell id="3T_zQqeu_H3zPudYL2ma-1" value="工程师" style="shape=umlActor;verticalLabelPosition=bottom;verticalAlign=top;html=1;outlineConnect=0;fillColor=#cce5ff;strokeColor=#36393d;" vertex="1" parent="3T_zQqeu_H3zPudYL2ma-15">
          <mxGeometry x="20" y="45" width="30" height="60" as="geometry" />
        </mxCell>
        <mxCell id="3T_zQqeu_H3zPudYL2ma-8" value="vnc client" style="shape=cube;whiteSpace=wrap;html=1;boundedLbl=1;backgroundOutline=1;darkOpacity=0.05;darkOpacity2=0.1;" vertex="1" parent="3T_zQqeu_H3zPudYL2ma-15">
          <mxGeometry x="60" y="65" width="90" height="40" as="geometry" />
        </mxCell>
      </root>
    </mxGraphModel>
  </diagram>
</mxfile>
